<svg width="60" height="60" viewBox="0 0 60 60" fill="none" xmlns="http://www.w3.org/2000/svg">
<path d="M37.0711 21.5147C37.4616 21.1242 38.0948 21.1242 38.4853 21.5147C38.8758 21.9052 38.8758 22.5384 38.4853 22.9289L22.9289 38.4853C22.5384 38.8758 21.9052 38.8758 21.5147 38.4853C21.1242 38.0948 21.1242 37.4616 21.5147 37.0711L37.0711 21.5147Z" fill="white"/>
<path d="M21.5147 22.9289C21.1242 22.5384 21.1242 21.9052 21.5147 21.5147C21.9052 21.1242 22.5384 21.1242 22.9289 21.5147L38.4853 37.0711C38.8758 37.4616 38.8758 38.0948 38.4853 38.4853C38.0948 38.8758 37.4616 38.8758 37.0711 38.4853L21.5147 22.9289Z" fill="white"/>
</svg>
